<?xml version="1.0" encoding="utf-8" standalone="no"?>
<!DOCTYPE svg PUBLIC "-//W3C//DTD SVG 1.1//EN"
  "http://www.w3.org/Graphics/SVG/1.1/DTD/svg11.dtd">
<svg xmlns:xlink="http://www.w3.org/1999/xlink" width="936pt" height="244.8pt" viewBox="0 0 936 244.8" xmlns="http://www.w3.org/2000/svg" version="1.1">
 <metadata>
  <rdf:RDF xmlns:dc="http://purl.org/dc/elements/1.1/" xmlns:cc="http://creativecommons.org/ns#" xmlns:rdf="http://www.w3.org/1999/02/22-rdf-syntax-ns#">
   <cc:Work>
    <dc:type rdf:resource="http://purl.org/dc/dcmitype/StillImage"/>
    <dc:date>2026-09-27T22:26:13.127801</dc:date>
    <dc:format>image/svg+xml</dc:format>
    <dc:creator>
     <cc:Agent>
      <dc:title>Matplotlib v3.11.0, https://matplotlib.org/</dc:title>
     </cc:Agent>
    </dc:creator>
   </cc:Work>
  </rdf:RDF>
 </metadata>
 <defs>
  <style type="text/css">*{stroke-linejoin: round; stroke-linecap: butt}</style>
 </defs>
 <g id="figure_1">
  <g id="patch_1">
   <path d="M 0 244.8 
L 936 244.8 
L 936 0 
L 0 0 
z
" style="fill: #ffffff"/>
  </g>
  <g id="axes_1">
   <g id="patch_2">
    <path d="M 135.135 173.009952 
L 291.096 173.009952 
Q 299.8008 173.009952 299.8008 170.748 
L 299.8008 76.5 
Q 299.8008 74.238048 291.096 74.238048 
L 135.135 74.238048 
Q 126.4302 74.238048 126.4302 76.5 
L 126.4302 170.748 
Q 126.4302 173.009952 135.135 173.009952 
z
" clip-path="url(#p6d54db1340)" style="fill: #eef6f6; stroke: #a7c6c7; stroke-linejoin: miter"/>
   </g>
   <g id="patch_3">
    <path d="M 311.0445 173.009952 
L 467.0055 173.009952 
Q 475.7103 173.009952 475.7103 170.748 
L 475.7103 76.5 
Q 475.7103 74.238048 467.0055 74.238048 
L 311.0445 74.238048 
Q 302.3397 74.238048 302.3397 76.5 
L 302.3397 170.748 
Q 302.3397 173.009952 311.0445 173.009952 
z
" clip-path="url(#p6d54db1340)" style="fill: #eef6f6; stroke: #a7c6c7; stroke-linejoin: miter"/>
   </g>
   <g id="patch_4">
    <path d="M 486.954 173.009952 
L 642.915 173.009952 
Q 651.6198 173.009952 651.6198 170.748 
L 651.6198 76.5 
Q 651.6198 74.238048 642.915 74.238048 
L 486.954 74.238048 
Q 478.2492 74.238048 478.2492 76.5 
L 478.2492 170.748 
Q 478.2492 173.009952 486.954 173.009952 
z
" clip-path="url(#p6d54db1340)" style="fill: #eef6f6; stroke: #a7c6c7; stroke-linejoin: miter"/>
   </g>
   <g id="patch_5">
    <path d="M 662.8635 173.009952 
L 818.8245 173.009952 
Q 827.5293 173.009952 827.5293 170.748 
L 827.5293 76.5 
Q 827.5293 74.238048 818.8245 74.238048 
L 662.8635 74.238048 
Q 654.1587 74.238048 654.1587 76.5 
L 654.1587 170.748 
Q 654.1587 173.009952 662.8635 173.009952 
z
" clip-path="url(#p6d54db1340)" style="fill: #eef6f6; stroke: #a7c6c7; stroke-linejoin: miter"/>
   </g>
   <g id="text_1">
    <text style="font-weight: 700; font-size: 14px; font-family: 'Microsoft YaHei'; text-anchor: middle; fill: #137f88" x="213.1155" y="105.044929" transform="rotate(-0 213.1155 105.044929)">输入</text>
   </g>
   <g id="text_2">
    <text style="font-size: 12px; font-family: 'Microsoft YaHei'; text-anchor: middle" x="213.1155" y="140.98497" transform="rotate(-0 213.1155 140.98497)">对齐 / 掩膜 / 参数</text>
   </g>
   <g id="patch_6">
    <path d="M 303.978226 123.624 
Q 316.48476 123.624 326.755227 123.624 
" style="fill: none; stroke: #137f88; stroke-width: 2; stroke-linecap: round"/>
    <path d="M 321.955227 121.224 
L 326.755227 123.624 
L 321.955227 126.024 
" style="fill: none; stroke: #137f88; stroke-width: 2; stroke-linecap: round"/>
   </g>
   <g id="text_3">
    <text style="font-weight: 700; font-size: 14px; font-family: 'Microsoft YaHei'; text-anchor: middle; fill: #137f88" x="389.025" y="104.990242" transform="rotate(-0 389.025 104.990242)">质量</text>
   </g>
   <g id="text_4">
    <text style="font-size: 12px; font-family: 'Microsoft YaHei'; text-anchor: middle" x="389.025" y="141.008408" transform="rotate(-0 389.025 141.008408)">失败记录 / 拟合质量</text>
   </g>
   <g id="patch_7">
    <path d="M 479.887726 123.624 
Q 492.39426 123.624 502.664727 123.624 
" style="fill: none; stroke: #137f88; stroke-width: 2; stroke-linecap: round"/>
    <path d="M 497.864727 121.224 
L 502.664727 123.624 
L 497.864727 126.024 
" style="fill: none; stroke: #137f88; stroke-width: 2; stroke-linecap: round"/>
   </g>
   <g id="text_5">
    <text style="font-weight: 700; font-size: 14px; font-family: 'Microsoft YaHei'; text-anchor: middle; fill: #137f88" x="564.9345" y="105.09196" transform="rotate(-0 564.9345 105.09196)">解释</text>
   </g>
   <g id="text_6">
    <text style="font-size: 12px; font-family: 'Microsoft YaHei'; text-anchor: middle" x="564.9345" y="141.073095" transform="rotate(-0 564.9345 141.073095)">特征 + 空间图</text>
   </g>
   <g id="patch_8">
    <path d="M 655.797226 123.624 
Q 668.30376 123.624 678.574227 123.624 
" style="fill: none; stroke: #137f88; stroke-width: 2; stroke-linecap: round"/>
    <path d="M 673.774227 121.224 
L 678.574227 123.624 
L 673.774227 126.024 
" style="fill: none; stroke: #137f88; stroke-width: 2; stroke-linecap: round"/>
   </g>
   <g id="text_7">
    <text style="font-weight: 700; font-size: 14px; font-family: 'Microsoft YaHei'; text-anchor: middle; fill: #137f88" x="740.844" y="105.085398" transform="rotate(-0 740.844 105.085398)">比较</text>
   </g>
   <g id="text_8">
    <text style="font-size: 12px; font-family: 'Microsoft YaHei'; text-anchor: middle" x="740.844" y="141.072158" transform="rotate(-0 740.844 141.072158)">病例与队列差异</text>
   </g>
  </g>
  <g id="text_9">
   <text style="font-weight: 700; font-size: 19px; font-family: 'Microsoft YaHei'; text-anchor: middle; fill: #163b4c" x="468" y="30.597531" transform="rotate(-0 468 30.597531)">从检查到解释</text>
  </g>
  <g id="text_10">
   <text style="font-size: 9px; font-family: 'Microsoft YaHei'; text-anchor: start; fill: #52636a" x="23.4" y="237.456" transform="rotate(-0 23.4 237.456)">教学示意 · 模拟数组 / 手绘结构 · 不是算法运行结果</text>
  </g>
 </g>
 <defs>
  <clipPath id="p6d54db1340">
   <rect x="117" y="29.376" width="725.4" height="188.496"/>
  </clipPath>
 </defs>
</svg>
